<svg xmlns="http://www.w3.org/2000/svg" enable-background="new 0 0 1087 197.6" version="1" viewBox="0 0 1087 197.6">
    <g fill="#1AB4DD">
        <path d="M7.2 26.8C7.2 16 16 7.2 26.8 7.2h72c50.5 0 91.6 41.1 91.6 91.6 0 50.5-41.1 91.6-91.6 91.6-50.5 0-91.6-41.1-91.6-91.6v-72zm91.6 170.8c54.5 0 98.8-44.3 98.8-98.8S153.3 0 98.8 0h-72C12 0 0 12 0 26.8v72c0 54.5 44.3 98.8 98.8 98.8M136.3 114.5l-4.5 26.5c-.8 4.9 2.4 9.5 7.3 10.3l2.9.5c4.9.8 9.5-2.4 10.3-7.3l4.5-26.5c.8-4.9-2.5-9.5-7.3-10.3l-2.9-.5c-4.8-.8-9.5 2.5-10.3 7.3M172.8 69.5l-14 81.6c12.2-14 19.6-32.2 19.6-52.3 0-10.4-2-20.2-5.6-29.3M145.8 59c-.4 2.4 1.2 4.8 3.7 5.2l11.8 2c2.4.4 4.7-1.2 5.2-3.7.4-2.4-1.2-4.8-3.7-5.2l-11.8-2c-2.4-.4-4.8 1.3-5.2 3.7" />
        <path d="M37.1 72.4c0-4.9 4-9 9-9H64c4.9 0 9 4 9 9v101.7c1.5.5 3 1 4.5 1.4v-127c0-5 4-9 9-9h17.9c5 0 9 4 9 9v128.6c1.7-.3 3.3-.7 5-1.1l20.7-122c.8-4.9 5.5-8.2 10.4-7.3l11.1 1.9C146 30.7 123.8 19.3 98.9 19.3h-72c-4.2 0-7.6 3.4-7.6 7.6v72c0 19 6.7 36.5 17.9 50.2V72.4zM61 80.7c2.5 0 4.5-2 4.5-4.5s-2-4.5-4.5-4.5H49c-2.5 0-4.5 2-4.5 4.5s2 4.5 4.5 4.5h12zM65.4 141.9c0-4.9-4-9-9-9h-3c-4.9 0-9 4-9 9V157c6.1 5.7 13 10.4 20.6 13.9.2-.7.3-1.4.3-2.2v-26.8zM84.9 135.5c0 4.9 4 9 9 9h3c5 0 9-4 9-9v-26.9c0-5-4-9-9-9h-3c-4.9 0-9 4-9 9v26.9zM101.3 56.8c2.5 0 4.5-2 4.5-4.5s-2-4.5-4.5-4.5h-12c-2.5 0-4.5 2-4.5 4.5s2 4.5 4.5 4.5h12z" />
    </g>
</svg>